<?xml version="1.0" encoding="UTF-8"?>
<svg width="963px" height="429px" viewBox="0 0 963 429" version="1.1" xmlns="http://www.w3.org/2000/svg" xmlns:xlink="http://www.w3.org/1999/xlink">
    <!-- Generator: Sketch 52.5 (67469) - http://www.bohemiancoding.com/sketch -->
    <title>2hog/illustrations/config-vs-code</title>
    <desc>Created with Sketch.</desc>
    <g id="2hog/illustrations/config-vs-code" stroke="none" stroke-width="1" fill="none" fill-rule="evenodd">
        <path id="Build-to-Release" d="M769.444444,134.5 L676.5,134.5 C674.290861,134.5 672.5,132.709139 672.5,130.5 C672.5,128.290861 674.290861,126.5 676.5,126.5 L769.444444,126.5 L769.444444,111.124648 C769.444444,109.675095 770.619539,108.5 772.069093,108.5 C772.476556,108.5 772.878424,108.594868 773.242871,108.777091 L811.993,128.152156 C813.289519,128.800416 813.815038,130.376971 813.166778,131.673491 C812.912807,132.181432 812.500941,132.593299 811.993,132.847269 L773.242871,152.222334 C771.946351,152.870593 770.369796,152.345075 769.721536,151.048555 C769.539313,150.684109 769.444444,150.282241 769.444444,149.874777 L769.444444,134.5 Z" fill="#000000" fill-rule="nonzero"></path>
        <g id="Build" transform="translate(227.000000, 70.000000)">
            <rect id="Rectangle" stroke="#000000" stroke-width="8" fill-rule="nonzero" x="4.5" y="4" width="149" height="112" rx="4"></rect>
            <text fill="#000000" font-family="SourceCodePro-Semibold, Source Code Pro" font-size="24" font-weight="500" letter-spacing="-0.657534182">
                <tspan x="43" y="66">Build</tspan>
            </text>
        </g>
        <path id="Source-Code-to-Build" d="M185.444444,134.5 L92.5,134.5 C90.290861,134.5 88.5,132.709139 88.5,130.5 C88.5,128.290861 90.290861,126.5 92.5,126.5 L185.444444,126.5 L185.444444,111.124648 C185.444444,109.675095 186.619539,108.5 188.069093,108.5 C188.476556,108.5 188.878424,108.594868 189.242871,108.777091 L227.993,128.152156 C229.289519,128.800416 229.815038,130.376971 229.166778,131.673491 C228.912807,132.181432 228.500941,132.593299 227.993,132.847269 L189.242871,152.222334 C187.946351,152.870593 186.369796,152.345075 185.721536,151.048555 C185.539313,150.684109 185.444444,150.282241 185.444444,149.874777 L185.444444,134.5 Z" fill="#000000" fill-rule="nonzero"></path>
        <g id="Source-Code" transform="translate(0.000000, -8.000000)" fill="#000000">
            <path d="M86.7049219,100.954922 L67.0450781,81.2950781 C64.9353059,79.1852903 62.0738358,78.0000156 59.0901562,78 L11.25,78 C5.03671875,78 0,83.0367188 0,89.25 L0,186.75 C0,192.963281 5.03671875,198 11.25,198 L78.75,198 C84.9632812,198 90,192.963281 90,186.75 L90,108.909844 C89.9999844,105.926164 88.8147097,103.064694 86.7049219,100.954922 Z M81.0337036,106.288308 C81.5058469,106.760094 81.8399956,107.352003 82,108 L60,108 L60,86 C60.6480404,86.1598945 61.2399776,86.494059 61.7116921,86.9662964 L81.0337036,106.288308 Z M78.25,190 L10.75,190 C8.67882812,190 7,188.321172 7,186.25 L7,88.75 C7,86.6788281 8.67882812,85 10.75,85 L52,85 L52,109.375 C52,112.481641 54.5183594,115 57.625,115 L82,115 L82,186.25 C82,188.321172 80.3211719,190 78.25,190 Z M40.9177576,174.952582 L34.8594678,173.188414 C34.55593,173.100035 34.299829,172.894316 34.1475105,172.616519 C33.9951919,172.338723 33.9591347,172.011607 34.0472719,171.707141 L47.6057562,124.862118 C47.6938644,124.557644 47.8989508,124.300753 48.1758935,124.147965 C48.4528362,123.995177 48.7789467,123.959009 49.0824761,124.047418 L55.1405322,125.811586 C55.44407,125.899965 55.700171,126.105684 55.8524895,126.383481 C56.0048081,126.661277 56.0408653,126.988393 55.9527281,127.292859 L42.3944774,174.137882 C42.3063693,174.442356 42.1012829,174.699247 41.8243402,174.852035 C41.5473974,175.004823 41.2212869,175.040991 40.9177576,174.952582 Z M29.3611047,163.626164 L33.6780145,159.052703 C33.8983947,158.819166 34.0140718,158.506884 33.9986307,158.187168 C33.9831896,157.867451 33.8379488,157.567601 33.5960745,157.356089 L24.608582,149.500004 L33.595841,141.643918 C33.8377737,141.432442 33.9830571,141.132582 33.9984992,140.812845 C34.0139413,140.493108 33.8982227,140.180812 33.6777811,139.947304 L29.3608713,135.373844 C29.1449211,135.145004 28.8462887,135.01075 28.5306759,135.000618 C28.215063,134.990486 27.9083256,135.105306 27.6779488,135.319817 L13.3762592,148.637205 C13.1361987,148.860761 13,149.173037 13,149.499888 C13,149.826739 13.1361987,150.139014 13.3762592,150.362571 L27.6779488,163.679959 C27.9083061,163.894571 28.2150767,164.009477 28.5307464,163.999388 C28.846416,163.989299 29.1451147,163.855042 29.3611047,163.626164 Z M62.3220293,163.680073 L76.6237343,150.362632 C76.8637989,150.139075 77,149.826798 77,149.499946 C77,149.173093 76.8637989,148.860817 76.6237343,148.637259 L62.3220293,135.319818 C62.0916485,135.105307 61.7849058,134.990486 61.4692874,135.000618 C61.1536691,135.01075 60.8550315,135.145005 60.6390776,135.373845 L56.3220927,139.947324 C56.1017087,140.180862 55.9860295,140.493145 56.0014709,140.812863 C56.0169123,141.132581 56.1621556,141.432432 56.4040342,141.643945 L65.3916829,149.500062 L56.4040342,157.356178 C56.1620972,157.567656 56.0168114,157.867517 56.001369,158.187255 C55.9859267,158.506994 56.1016472,158.819291 56.3220927,159.052799 L60.6390776,163.626278 C60.8550632,163.855087 61.1537179,163.989299 61.4693359,163.999387 C61.7849538,164.009476 62.0916788,163.894614 62.3220293,163.680073 Z" id="file-code" fill-rule="nonzero"></path>
            <text font-family="SourceCodePro-Semibold, Source Code Pro" font-size="24" font-weight="500" letter-spacing="-0.657534242">
                <tspan x="4" y="24">Source</tspan>
                <tspan x="4" y="55">Code</tspan>
            </text>
        </g>
        <g id="Release" transform="translate(521.000000, 70.000000)">
            <rect id="Rectangle" stroke="#000000" stroke-width="8" fill-rule="nonzero" x="4" y="4" width="149" height="112" rx="4"></rect>
            <text font-family="SourceCodePro-Semibold, Source Code Pro" font-size="24" font-weight="500" letter-spacing="-0.6575342" fill="#000000">
                <tspan x="32" y="66">Release</tspan>
            </text>
        </g>
        <path id="Configuration-to-Release" d="M597.5,231.555556 L597.5,293 C597.5,295.209139 595.709139,297 593.5,297 C591.290861,297 589.5,295.209139 589.5,293 L589.5,231.555556 L574.124648,231.555556 C572.675095,231.555556 571.5,230.380461 571.5,228.930907 C571.5,228.523444 571.594868,228.121576 571.777091,227.757129 L591.152156,189.007 C591.800416,187.710481 593.376971,187.184962 594.673491,187.833222 C595.181432,188.087193 595.593299,188.499059 595.847269,189.007 L615.222334,227.757129 C615.870593,229.053649 615.345075,230.630204 614.048555,231.278464 C613.684109,231.460687 613.282241,231.555556 612.874777,231.555556 L597.5,231.555556 Z" fill="#000000" fill-rule="nonzero"></path>
        <path id="Build-to-Release" d="M477.444444,134.5 L384.5,134.5 C382.290861,134.5 380.5,132.709139 380.5,130.5 C380.5,128.290861 382.290861,126.5 384.5,126.5 L477.444444,126.5 L477.444444,111.124648 C477.444444,109.675095 478.619539,108.5 480.069093,108.5 C480.476556,108.5 480.878424,108.594868 481.242871,108.777091 L519.993,128.152156 C521.289519,128.800416 521.815038,130.376971 521.166778,131.673491 C520.912807,132.181432 520.500941,132.593299 519.993,132.847269 L481.242871,152.222334 C479.946351,152.870593 478.369796,152.345075 477.721536,151.048555 C477.539313,150.684109 477.444444,150.282241 477.444444,149.874777 L477.444444,134.5 Z" fill="#000000" fill-rule="nonzero"></path>
        <path d="M657.708202,327.293882 L657.20828,326.514005 C656.38841,326.573996 655.588536,326.573996 654.768665,326.514005 L654.268744,327.313879 C653.108927,329.153589 650.849284,329.993456 648.769612,329.33356 C646.010047,328.473696 644.170338,327.573838 641.910694,325.714131 C640.110978,324.234365 639.671047,321.654772 640.830864,319.635091 L641.330786,318.775226 C640.870858,318.095333 640.470921,317.395444 640.110978,316.655561 L638.291265,316.655561 C635.971631,316.655561 634.01194,315.015819 633.57201,312.736179 C633.052092,309.996611 633.032095,307.896943 633.592007,305.037394 C634.01194,302.77775 636.011625,301.138009 638.311262,301.138009 L640.110978,301.138009 C640.470921,300.398126 640.870858,299.698236 641.330786,299.018343 L640.810868,298.118485 C639.651051,296.118801 640.090981,293.579202 641.850703,292.059441 C643.970369,290.239728 645.790082,289.199892 648.549647,288.260041 C650.709306,287.520158 653.08893,288.400019 654.248747,290.379706 L654.768665,291.259568 C655.588536,291.199577 656.38841,291.199577 657.20828,291.259568 L657.728198,290.379706 C658.888015,288.400019 661.26764,287.520158 663.447296,288.280038 C666.106876,289.179896 667.906592,290.199735 670.146239,292.099435 C671.905961,293.599198 672.325895,296.138798 671.166078,298.138482 L670.64616,299.018343 C671.106088,299.698236 671.506025,300.398126 671.865968,301.138009 L672.885807,301.138009 C675.205441,301.138009 677.165132,302.77775 677.605062,305.057391 C678.12498,307.796958 678.144977,309.896627 677.585065,312.756176 C677.165132,315.015819 675.165447,316.655561 672.86581,316.655561 L671.865968,316.655561 C671.506025,317.395444 671.106088,318.095333 670.64616,318.775226 L671.146081,319.635091 C672.325895,321.674769 671.845971,324.254362 670.046255,325.734128 C667.906592,327.493851 666.066883,328.413705 663.247328,329.313564 C661.147659,329.973459 658.868019,329.153589 657.708202,327.293882 Z M660.147817,320.394971 L662.267482,324.054393 C663.607271,323.494482 664.847075,322.774595 666.006892,321.894734 L663.887227,318.235311 L665.167025,316.735548 C666.126873,315.595728 666.886753,314.31593 667.366678,312.916151 L668.026574,311.056444 L672.245908,311.056444 C672.425879,309.636668 672.425879,308.176898 672.245908,306.757122 L668.026574,306.757122 L667.366678,304.897416 C666.866757,303.497637 666.126873,302.217839 665.167025,301.078018 L663.887227,299.578255 L665.986895,295.898836 C664.847075,295.018974 663.587274,294.299088 662.247485,293.739176 L660.12782,297.398599 L658.188126,297.038656 C656.728356,296.7587 655.228593,296.7587 653.768823,297.038656 L651.829129,297.398599 L649.709464,293.739176 C648.389672,294.279091 647.129871,295.018974 645.99005,295.898836 L648.109716,299.558258 L646.829918,301.058022 C645.870069,302.197842 645.110189,303.47764 644.630265,304.877419 L643.970369,306.737126 L639.751035,306.737126 C639.571063,308.156902 639.571063,309.616671 639.751035,311.036447 L643.970369,311.036447 L644.630265,312.896154 C645.130186,314.295933 645.870069,315.575731 646.829918,316.715551 L648.109716,318.215315 L645.99005,321.894734 C647.129871,322.774595 648.389672,323.494482 649.72946,324.054393 L651.849126,320.394971 L653.78882,320.754914 C655.24859,321.03487 656.748353,321.03487 658.208123,320.754914 L660.147817,320.394971 Z M579.06061,378.885742 L579.06061,372.566739 C576.481017,371.466913 574.041402,370.047137 571.781759,368.347405 L566.282626,371.526903 C564.322936,372.646727 561.863324,372.266787 560.343563,370.607048 C555.504327,365.347878 552.644778,360.70861 550.22516,352.989828 C549.545267,350.850166 550.445125,348.530532 552.384819,347.390711 L557.843958,344.211213 C557.504011,341.411655 557.504011,338.5921 557.843958,335.792541 L552.384819,332.63304 C550.445125,331.513216 549.545267,329.173586 550.22516,327.033923 C552.644778,319.355135 555.464333,314.715867 560.343563,309.416703 C561.863324,307.756965 564.342932,307.377025 566.282626,308.496848 L571.761762,311.676346 C574.021405,309.976614 576.46102,308.576835 579.040613,307.457012 L579.040613,301.138009 C579.040613,298.878365 580.600367,296.938672 582.80002,296.458747 C589.738925,294.898993 595.198064,294.719022 603.136812,296.458747 C605.336465,296.938672 606.916215,298.898362 606.916215,301.138009 L606.916215,307.457012 C609.495808,308.556838 611.935423,309.976614 614.195067,311.656349 L619.674202,308.496848 C621.633893,307.377025 624.113502,307.756965 625.633262,309.416703 C631.012414,315.335769 633.931953,320.594939 636.051618,327.113911 C636.731511,329.213579 635.891644,331.49322 634.01194,332.653037 L629.012729,335.812538 C629.352675,338.612096 629.352675,341.431652 629.012729,344.23121 L634.631842,347.730658 C636.351571,348.810487 637.231432,350.850166 636.791502,352.829853 C635.411719,359.088866 630.192543,365.747815 625.613265,370.667039 C624.093505,372.30678 621.633893,372.666723 619.694199,371.5469 L614.195067,368.367402 C611.935423,370.067134 609.495808,371.466913 606.916215,372.586736 L606.916215,378.905739 C606.916215,381.145386 605.356461,383.105077 603.156808,383.585001 C595.657992,385.244739 590.178856,385.224742 582.780023,383.585001 C580.620364,383.08508 579.06061,381.125389 579.06061,378.885742 Z M585.459601,377.645938 C590.418818,378.64578 595.558007,378.64578 600.517225,377.645938 L600.517225,368.107443 L602.656887,367.347563 C606.016357,366.167749 609.115868,364.368033 611.835439,362.048399 L613.555168,360.568632 L621.833862,365.347878 C625.193332,361.528481 628.632789,357.089181 630.252533,352.309935 L621.97384,347.530689 L622.393773,345.31104 C623.033672,341.791595 623.033672,338.21216 622.393773,334.692715 L621.97384,332.473065 L630.252533,327.693819 C628.632789,322.914573 625.193332,318.455277 621.833862,314.655876 L613.555168,319.435122 L611.835439,317.955356 C609.115868,315.615725 606.036354,313.836006 602.656887,312.656192 L600.517225,311.896312 L600.517225,302.377813 C595.558007,301.377971 590.418818,301.377971 585.459601,302.377813 L585.459601,311.916308 L583.319938,312.676188 C579.960468,313.856002 576.860957,315.655718 574.141386,317.975352 L572.421658,319.455119 L564.142964,314.675873 C560.794741,318.482121 558.232617,322.913168 556.604153,327.713816 L564.882847,332.493062 L564.462913,334.712712 C563.823014,338.232156 563.823014,341.811592 564.462913,345.331036 L564.882847,347.550686 L556.604153,352.329932 C558.223898,357.109178 560.783494,361.568474 564.142964,365.367875 L572.421658,360.588629 L574.141386,362.068396 C576.860957,364.408026 579.940471,366.187746 583.319938,367.36756 L585.459601,368.12744 L585.459601,377.645938 Z M593.138389,356.58926 C583.999831,356.58926 576.561005,349.150434 576.561005,340.011876 C576.561005,330.873317 583.999831,323.434491 593.138389,323.434491 C602.276947,323.434491 609.715774,330.873317 609.715774,340.011876 C609.715774,349.150434 602.276947,356.58926 593.138389,356.58926 Z M593.138389,329.833481 C587.539273,329.833481 582.959995,334.392762 582.959995,340.011876 C582.959995,345.630989 587.519276,350.19027 593.138389,350.19027 C598.737506,350.19027 603.316783,345.630989 603.316783,340.011876 C603.316783,334.392762 598.757503,329.833481 593.138389,329.833481 Z M657.708202,388.164278 L657.20828,387.384401 C656.38841,387.444392 655.588536,387.444392 654.768665,387.384401 L654.268744,388.184275 C653.108927,390.023985 650.849284,390.863852 648.769612,390.203956 C646.010047,389.344092 644.170338,388.444234 641.910694,386.584528 C640.110978,385.104761 639.671047,382.525168 640.830864,380.505487 L641.330786,379.645622 C640.870858,378.96573 640.470921,378.26584 640.110978,377.525957 L638.291265,377.525957 C635.971631,377.525957 634.01194,375.886215 633.57201,373.606575 C633.052092,370.867007 633.032095,368.767339 633.592007,365.90779 C634.01194,363.648146 636.011625,362.008405 638.311262,362.008405 L640.110978,362.008405 C640.470921,361.268522 640.870858,360.568632 641.330786,359.888739 L640.810868,358.988881 C639.651051,356.989197 640.090981,354.449598 641.850703,352.929837 C643.970369,351.110125 645.790082,350.070289 648.549647,349.130437 C650.709306,348.390554 653.08893,349.270415 654.248747,351.250102 L654.768665,352.129964 C655.588536,352.069973 656.38841,352.069973 657.20828,352.129964 L657.728198,351.250102 C658.888015,349.270415 661.26764,348.390554 663.447296,349.150434 C666.106876,350.050292 667.906592,351.070131 670.146239,352.969831 C671.905961,354.469595 672.325895,357.009194 671.166078,359.008878 L670.64616,359.888739 C671.106088,360.568632 671.506025,361.268522 671.865968,362.008405 L672.885807,362.008405 C675.205441,362.008405 677.165132,363.648146 677.605062,365.927787 C678.12498,368.667354 678.144977,370.767023 677.585065,373.626572 C677.165132,375.886215 675.165447,377.525957 672.86581,377.525957 L671.865968,377.525957 C671.506025,378.26584 671.106088,378.96573 670.64616,379.645622 L671.146081,380.505487 C672.325895,382.545165 671.845971,385.124758 670.046255,386.604524 C667.906592,388.364247 666.066883,389.284102 663.247328,390.18396 C661.147659,390.823859 658.868019,390.003988 657.708202,388.164278 Z M660.147817,381.24537 L662.267482,384.904793 C663.607271,384.344881 664.847075,383.624994 666.006892,382.745133 L663.887227,379.085711 L665.167025,377.585947 C666.126873,376.446127 666.886753,375.166329 667.366678,373.76655 L668.026574,371.906843 L672.245908,371.906843 C672.425879,370.487067 672.425879,369.027298 672.245908,367.607522 L668.026574,367.607522 L667.366678,365.747815 C666.866757,364.348036 666.126873,363.068238 665.167025,361.928418 L663.887227,360.428654 L666.006892,356.769232 C664.867072,355.88937 663.607271,355.169484 662.267482,354.609572 L660.147817,358.268995 L658.208123,357.909052 C656.748353,357.629096 655.24859,357.629096 653.78882,357.909052 L651.849126,358.268995 L649.72946,354.609572 C648.389672,355.169484 647.149867,355.88937 645.99005,356.769232 L648.109716,360.428654 L646.829918,361.928418 C645.870069,363.068238 645.110189,364.348036 644.630265,365.747815 L643.970369,367.607522 L639.751035,367.607522 C639.571063,369.027298 639.571063,370.487067 639.751035,371.906843 L643.970369,371.906843 L644.630265,373.76655 C645.130186,375.166329 645.870069,376.446127 646.829918,377.585947 L648.109716,379.085711 L645.99005,382.745133 C647.129871,383.624994 648.389672,384.344881 649.72946,384.904793 L651.849126,381.24537 L653.78882,381.605313 C655.24859,381.885269 656.748353,381.885269 658.208123,381.605313 L660.147817,381.24537 Z M661.987526,369.607206 C661.987526,366.067765 659.127978,363.208216 655.588536,363.208216 C652.049094,363.208216 649.189546,366.067765 649.189546,369.607206 C649.189546,373.146648 652.049094,376.006197 655.588536,376.006197 C659.127978,376.006197 661.987526,373.146648 661.987526,369.607206 Z M661.987526,308.756807 C661.987526,305.217365 659.127978,302.357816 655.588536,302.357816 C652.049094,302.357816 649.189546,305.217365 649.189546,308.756807 C649.189546,312.296248 652.049094,315.155797 655.588536,315.155797 C659.127978,315.155797 661.987526,312.276252 661.987526,308.756807 Z" id="Configuration" fill="#000000" fill-rule="nonzero"></path>
        <text id="Configuration" font-family="SourceCodePro-Semibold, Source Code Pro" font-size="24" font-weight="500" letter-spacing="-0.6575342" fill="#000000">
            <tspan x="525" y="423">Configuration</tspan>
        </text>
        <path d="M928.429688,101.265625 L920.554688,77.6875 C919.03125,73.09375 914.742188,70 909.890625,70 L836.109375,70 C831.257812,70 826.96875,73.09375 825.445312,77.6875 L813.585938,113.265625 C813.210938,114.414062 813,115.609375 813,116.828125 L813,178.75 C813,184.960938 818.039062,190 824.25,190 L918,190 C942.84375,190 963,169.84375 963,145 C963,123.742187 948.234375,105.976562 928.429688,101.265625 Z M877,77 L909.84819,77 C911.451108,77 912.868179,78.0456535 913.379254,79.590369 L920,99.9093183 C919.303079,99.8855535 918.606159,99.7904941 917.886008,99.7904941 C904.690978,99.7904941 892.866559,105.684178 884.712588,115 L877,115 L877,77 Z M832.563742,79.58875 C833.075618,78.045 834.49491,77 836.100339,77 L869,77 L869,115 L821,115 L832.563742,79.58875 Z M823.767742,183 C821.695484,183 820,181.3125 820,179.25 L820,123 L878.847419,123 C874.985484,129.632812 872.748387,137.296875 872.748387,145.5 C872.748387,161.15625 880.801935,174.9375 893,183 L823.767742,183 Z M918.5,183 C897.828125,183 881,166.171875 881,145.5 C881,124.828125 897.828125,108 918.5,108 C939.171875,108 956,124.828125 956,145.5 C956,166.171875 939.171875,183 918.5,183 Z M933.061265,130.544709 C932.326087,129.81843 931.140316,129.81843 930.405138,130.544709 L913.828063,146.780554 L906.642292,139.61148 C905.907115,138.885201 904.721344,138.885201 903.986166,139.61148 L899.551383,143.969153 C898.816206,144.695431 898.816206,145.866849 899.551383,146.593128 L912.452569,159.455291 C913.187747,160.18157 914.373518,160.18157 915.108696,159.455291 L937.448617,137.549785 C938.183794,136.823506 938.183794,135.652089 937.448617,134.92581 L933.061265,130.544709 Z" id="Application" fill="#000000" fill-rule="nonzero"></path>
        <text id="Application" font-family="SourceCodePro-Semibold, Source Code Pro" font-size="24" font-weight="500" letter-spacing="-0.6575342" fill="#000000">
            <tspan x="798" y="50">Application</tspan>
        </text>
    </g>
</svg>