<?xml version="1.0" encoding="UTF-8"?>
<svg width="1920px" height="1080px" viewBox="0 0 1920 1080" version="1.1" xmlns="http://www.w3.org/2000/svg" xmlns:xlink="http://www.w3.org/1999/xlink">
    <!-- Generator: Sketch 51.2 (57519) - http://www.bohemiancoding.com/sketch -->
    <title>Topology</title>
    <desc>Created with Sketch.</desc>
    <defs></defs>
    <g id="Topology" stroke="none" stroke-width="1" fill="none" fill-rule="evenodd">
        <g id="Backing-Services" transform="translate(40.000000, 920.000000)">
            <rect id="Rectangle" stroke="#41007B" fill-opacity="0.2" fill="#F5A623" fill-rule="nonzero" x="0.5" y="0.5" width="1839" height="122"></rect>
            <text id="Backing-services" font-family="SourceSansPro-Regular, Source Sans Pro" font-size="64" font-weight="normal" fill="#000000">
                <tspan x="700.02" y="83">Backing services</tspan>
            </text>
        </g>
        <g id="App" transform="translate(40.000000, 617.000000)">
            <rect id="Rectangle" stroke="#014358" fill-opacity="0.2" fill="#014358" fill-rule="nonzero" x="0.5" y="0.5" width="1839" height="122"></rect>
            <text id="Your-app" font-family="SourceSansPro-Regular, Source Sans Pro" font-size="64" font-weight="normal" fill="#000000">
                <tspan x="814.176" y="80">Your app</tspan>
            </text>
        </g>
        <g id="Infrastrucutre-Provider" transform="translate(40.000000, 320.000000)">
            <rect id="Rectangle" stroke="#41007B" fill-opacity="0.2" fill="#450180" fill-rule="nonzero" x="0.5" y="0.5" width="1839" height="122"></rect>
            <text id="Infrastructure-Provi" font-family="SourceSansPro-Regular, Source Sans Pro" font-size="64" font-weight="normal" fill="#000000">
                <tspan x="616.96" y="81">Infrastructure Provider</tspan>
            </text>
        </g>
        <g id="Users" transform="translate(40.000000, 40.000000)">
            <rect id="Rectangle" stroke="#417505" fill-opacity="0.2" fill="#417505" fill-rule="nonzero" x="0.5" y="0.5" width="759" height="122"></rect>
            <text font-family="SourceSansPro-Regular, Source Sans Pro" font-size="64" font-weight="normal" fill="#000000">
                <tspan x="305.824" y="81">Users</tspan>
            </text>
        </g>
        <g id="Git-Hosting" transform="translate(1120.000000, 40.000000)">
            <rect id="Rectangle" stroke="#4A90E2" fill-opacity="0.2" fill="#4A90E2" fill-rule="nonzero" x="0.5" y="0.5" width="759" height="122"></rect>
            <text id="Git-Hosting-Provider" font-family="SourceSansPro-Regular, Source Sans Pro" font-size="64" font-weight="normal" fill="#000000">
                <tspan x="111.808" y="81">Git Hosting Provider</tspan>
            </text>
        </g>
        <g id="Components/Labeled-Arrow" transform="translate(925.000000, 740.000000)">
            <path d="M71,131.378717 C63.1318868,137.728253 56.247391,144.855812 50.3463061,152.761607 C44.4452212,160.667402 39.496502,169.413445 35.5,179 C31.6283887,169.662447 26.7421139,161.040902 20.841029,153.135107 C14.9399441,145.229312 7.99300391,137.977254 0,131.378717 C0.62445343,131.316466 1.20206419,131.269779 1.7328496,131.238654 C2.26363502,131.207529 2.77880137,131.191967 3.27836412,131.191967 C7.96176484,131.191967 12.7855952,132.46808 17.75,135.020344 C22.7144048,137.572609 27.7880128,141.400948 32.9709763,146.505477 L32.9709763,32.4945227 C27.6631221,37.7235525 22.5270697,41.5830166 17.5626649,44.0730308 C12.5982601,46.563045 7.58709653,47.8080334 2.52902375,47.8080334 C1.96701566,47.8080334 1.51429371,47.792471 1.17084433,47.7613459 C0.827394941,47.7302207 0.468339604,47.6524089 0.0936675462,47.5279082 C8.14911679,40.8671202 15.1272792,33.583938 21.0283641,25.6781429 C26.929449,17.7723479 31.7532794,9.2130525 35.5,0 C39.496502,9.52430427 44.4452212,18.2547856 50.3463061,26.1917058 C56.247391,34.128626 63.1006646,41.2406224 70.9063325,47.5279082 C70.5941057,47.6524089 70.2194393,47.7302207 69.7823219,47.7613459 C69.3452045,47.792471 68.658316,47.8080334 67.7216359,47.8080334 C63.0382352,47.8080334 58.3080714,46.5941697 53.5310026,44.1664058 C48.7539339,41.738642 43.5866593,37.8480532 38.0290237,32.4945227 L38.0290237,146.505477 C43.2119872,141.400948 48.2855952,137.572609 53.25,135.020344 C58.2144048,132.46808 63.0382352,131.191967 67.7216359,131.191967 C68.283644,131.191967 68.8300325,131.207529 69.3608179,131.238654 C69.8916034,131.269779 70.4379919,131.316466 71,131.378717 Z" id="Double-Arrow" fill="#4A4A4A" fill-rule="evenodd"></path>
            <text id="Network" font-family="LucidaGrande, Lucida Grande" font-size="48" font-weight="normal" fill="#000000">
                <tspan x="98.3398438" y="102">Network</tspan>
            </text>
        </g>
        <g id="Components/Labeled-Arrow" transform="translate(298.000000, 443.000000)">
            <path d="M71,131.378717 C63.1318868,137.728253 56.247391,144.855812 50.3463061,152.761607 C44.4452212,160.667402 39.496502,169.413445 35.5,179 C31.6283887,169.662447 26.7421139,161.040902 20.841029,153.135107 C14.9399441,145.229312 7.99300391,137.977254 0,131.378717 C0.62445343,131.316466 1.20206419,131.269779 1.7328496,131.238654 C2.26363502,131.207529 2.77880137,131.191967 3.27836412,131.191967 C7.96176484,131.191967 12.7855952,132.46808 17.75,135.020344 C22.7144048,137.572609 27.7880128,141.400948 32.9709763,146.505477 L32.9709763,32.4945227 C27.6631221,37.7235525 22.5270697,41.5830166 17.5626649,44.0730308 C12.5982601,46.563045 7.58709653,47.8080334 2.52902375,47.8080334 C1.96701566,47.8080334 1.51429371,47.792471 1.17084433,47.7613459 C0.827394941,47.7302207 0.468339604,47.6524089 0.0936675462,47.5279082 C8.14911679,40.8671202 15.1272792,33.583938 21.0283641,25.6781429 C26.929449,17.7723479 31.7532794,9.2130525 35.5,0 C39.496502,9.52430427 44.4452212,18.2547856 50.3463061,26.1917058 C56.247391,34.128626 63.1006646,41.2406224 70.9063325,47.5279082 C70.5941057,47.6524089 70.2194393,47.7302207 69.7823219,47.7613459 C69.3452045,47.792471 68.658316,47.8080334 67.7216359,47.8080334 C63.0382352,47.8080334 58.3080714,46.5941697 53.5310026,44.1664058 C48.7539339,41.738642 43.5866593,37.8480532 38.0290237,32.4945227 L38.0290237,146.505477 C43.2119872,141.400948 48.2855952,137.572609 53.25,135.020344 C58.2144048,132.46808 63.0382352,131.191967 67.7216359,131.191967 C68.283644,131.191967 68.8300325,131.207529 69.3608179,131.238654 C69.8916034,131.269779 70.4379919,131.316466 71,131.378717 Z" id="Double-Arrow" fill="#4A4A4A" fill-rule="evenodd"></path>
            <text id="Network" font-family="LucidaGrande, Lucida Grande" font-size="48" font-weight="normal" fill="#000000">
                <tspan x="123.863281" y="102">STDIO</tspan>
            </text>
        </g>
        <g id="Components/Labeled-Arrow" transform="translate(1365.000000, 443.000000)">
            <path d="M71,131.378717 C63.1318868,137.728253 56.247391,144.855812 50.3463061,152.761607 C44.4452212,160.667402 39.496502,169.413445 35.5,179 C31.6283887,169.662447 26.7421139,161.040902 20.841029,153.135107 C14.9399441,145.229312 7.99300391,137.977254 0,131.378717 C0.62445343,131.316466 1.20206419,131.269779 1.7328496,131.238654 C2.26363502,131.207529 2.77880137,131.191967 3.27836412,131.191967 C7.96176484,131.191967 12.7855952,132.46808 17.75,135.020344 C22.7144048,137.572609 27.7880128,141.400948 32.9709763,146.505477 L32.9709763,32.4945227 C27.6631221,37.7235525 22.5270697,41.5830166 17.5626649,44.0730308 C12.5982601,46.563045 7.58709653,47.8080334 2.52902375,47.8080334 C1.96701566,47.8080334 1.51429371,47.792471 1.17084433,47.7613459 C0.827394941,47.7302207 0.468339604,47.6524089 0.0936675462,47.5279082 C8.14911679,40.8671202 15.1272792,33.583938 21.0283641,25.6781429 C26.929449,17.7723479 31.7532794,9.2130525 35.5,0 C39.496502,9.52430427 44.4452212,18.2547856 50.3463061,26.1917058 C56.247391,34.128626 63.1006646,41.2406224 70.9063325,47.5279082 C70.5941057,47.6524089 70.2194393,47.7302207 69.7823219,47.7613459 C69.3452045,47.792471 68.658316,47.8080334 67.7216359,47.8080334 C63.0382352,47.8080334 58.3080714,46.5941697 53.5310026,44.1664058 C48.7539339,41.738642 43.5866593,37.8480532 38.0290237,32.4945227 L38.0290237,146.505477 C43.2119872,141.400948 48.2855952,137.572609 53.25,135.020344 C58.2144048,132.46808 63.0382352,131.191967 67.7216359,131.191967 C68.283644,131.191967 68.8300325,131.207529 69.3608179,131.238654 C69.8916034,131.269779 70.4379919,131.316466 71,131.378717 Z" id="Double-Arrow" fill="#4A4A4A" fill-rule="evenodd"></path>
            <text id="Network" font-family="LucidaGrande, Lucida Grande" font-size="48" font-weight="normal" fill="#000000">
                <tspan x="134.246094" y="102">HTTP</tspan>
            </text>
        </g>
        <g id="Components/Labeled-Arrow" transform="translate(298.000000, 162.000000)">
            <path d="M62.7743902,115.965571 C55.8178267,121.57019 49.730925,127.861554 44.5135023,134.839854 C39.2960797,141.818153 34.9206877,149.538125 31.3871951,158 C27.9641242,149.757914 23.6439422,142.147835 18.4265196,135.169536 C13.2090969,128.191236 7.06698516,121.789979 0,115.965571 C0.552108216,115.910624 1.06280065,115.869414 1.53209264,115.841941 C2.00138462,115.814467 2.45686707,115.80073 2.89855364,115.80073 C7.03936526,115.80073 11.3043372,116.927132 15.6935976,119.179969 C20.0828579,121.432806 24.5686698,124.81201 29.151168,129.317684 L29.151168,28.6823161 C24.4582482,33.2978843 19.9172262,36.7045621 15.5279659,38.9024517 C11.1387056,41.1003414 6.70810364,42.1992697 2.23602709,42.1992697 C1.7391297,42.1992697 1.33885725,42.1855331 1.03519773,42.1580595 C0.73153821,42.1305858 0.414080748,42.0619028 0.0828158183,41.9520083 C7.2050118,36.0726536 13.3747286,29.6439229 18.5921512,22.6656234 C23.8095738,15.6873238 28.0745458,8.13219159 31.3871951,0 C34.9206877,8.40692779 39.2960797,16.1131627 44.5135023,23.1189358 C49.730925,30.124709 55.7902217,36.4023371 62.6915744,41.9520083 C62.4155203,42.0619028 62.0842604,42.1305858 61.6977846,42.1580595 C61.3113089,42.1855331 60.7039989,42.1992697 59.8758366,42.1992697 C55.735025,42.1992697 51.552868,41.1278146 47.3292401,38.9848722 C43.1056123,36.8419298 38.5369853,33.4077788 33.6232222,28.6823161 L33.6232222,129.317684 C38.2057204,124.81201 42.6915324,121.432806 47.0807927,119.179969 C51.470053,116.927132 55.735025,115.80073 59.8758366,115.80073 C60.372734,115.80073 60.8558214,115.814467 61.3251134,115.841941 C61.7944054,115.869414 62.2774928,115.910624 62.7743902,115.965571 Z" id="Double-Arrow" fill="#4A4A4A" fill-rule="evenodd"></path>
            <text id="Network" font-family="LucidaGrande, Lucida Grande" font-size="48" font-weight="normal" fill="#000000">
                <tspan x="98.6709223" y="92.1452514">HTTPS</tspan>
            </text>
        </g>
        <g id="Components/Labeled-Arrow" transform="translate(1365.000000, 163.000000)">
            <path d="M63.2073171,116.699531 C56.2027773,122.339621 50.0738969,128.670805 44.820492,135.693271 C39.5670871,142.715737 35.16152,150.484569 31.6036585,159 C28.1569802,150.705749 23.8070039,143.047505 18.553599,136.025039 C13.3001941,129.002573 7.11572299,122.560801 0,116.699531 C0.555915858,116.644236 1.07013031,116.602765 1.54265879,116.575117 C2.01518727,116.54747 2.47381098,116.533646 2.91854366,116.533646 C7.0879126,116.533646 11.3822982,117.667177 15.8018293,119.934272 C20.2213603,122.201368 24.7381089,125.60196 29.3522106,130.13615 L29.3522106,28.8638498 C24.6269258,33.5086304 20.0545864,36.9368695 15.6350553,39.1486698 C11.2155243,41.3604701 6.75436642,42.4663537 2.25144797,42.4663537 C1.7511237,42.4663537 1.34809075,42.4525301 1.04233702,42.4248826 C0.736583301,42.3972351 0.416936477,42.3281174 0.0833869618,42.2175274 C7.25470154,36.3009615 13.4669681,29.8315427 18.7203729,22.8090767 C23.9737778,15.7866107 28.2681634,8.18366116 31.6036585,0 C35.16152,8.4601362 39.5670871,16.2151447 44.820492,23.2652582 C50.0738969,30.3153717 56.1749819,36.6327316 63.1239301,42.2175274 C62.8459722,42.3281174 62.5124277,42.3972351 62.1232866,42.4248826 C61.7341455,42.4525301 61.1226472,42.4663537 60.2887734,42.4663537 C56.1194045,42.4663537 51.908405,41.3881172 47.6556487,39.2316119 C43.4028924,37.0751066 38.8027576,33.6192204 33.8551065,28.8638498 L33.8551065,130.13615 C38.4692081,125.60196 42.9859567,122.201368 47.4054878,119.934272 C51.8250189,117.667177 56.1194045,116.533646 60.2887734,116.533646 C60.7890977,116.533646 61.2755168,116.54747 61.7480452,116.575117 C62.2205737,116.602765 62.7069928,116.644236 63.2073171,116.699531 Z" id="Double-Arrow" fill="#4A4A4A" fill-rule="evenodd"></path>
            <text id="Network" font-family="LucidaGrande, Lucida Grande" font-size="48" font-weight="normal" fill="#000000">
                <tspan x="46.2965892" y="92.6145251">Integration</tspan>
            </text>
        </g>
    </g>
</svg>